<?xml version="1.0" encoding="UTF-8" standalone="no"?>
<svg width="256px" height="48px" viewBox="0 0 256 48" version="1.1" xmlns="http://www.w3.org/2000/svg" xmlns:xlink="http://www.w3.org/1999/xlink">
    <!-- Generator: Sketch 40.3 (33839) - http://www.bohemiancoding.com/sketch -->
    <title>Button - Teal</title>
    <desc>Created with Sketch.</desc>
    <defs>
        <rect id="path-1" x="0" y="0" width="248" height="40" rx="6"></rect>
        <filter x="-50%" y="-50%" width="200%" height="200%" filterUnits="objectBoundingBox" id="filter-2">
            <feOffset dx="0" dy="2" in="SourceAlpha" result="shadowOffsetOuter1"></feOffset>
            <feGaussianBlur stdDeviation="1" in="shadowOffsetOuter1" result="shadowBlurOuter1"></feGaussianBlur>
            <feColorMatrix values="0 0 0 0 0   0 0 0 0 0   0 0 0 0 0  0 0 0 0.24 0" type="matrix" in="shadowBlurOuter1" result="shadowMatrixOuter1"></feColorMatrix>
            <feOffset dx="0" dy="0" in="SourceAlpha" result="shadowOffsetOuter2"></feOffset>
            <feGaussianBlur stdDeviation="1" in="shadowOffsetOuter2" result="shadowBlurOuter2"></feGaussianBlur>
            <feColorMatrix values="0 0 0 0 0   0 0 0 0 0   0 0 0 0 0  0 0 0 0.12 0" type="matrix" in="shadowBlurOuter2" result="shadowMatrixOuter2"></feColorMatrix>
            <feMerge>
                <feMergeNode in="shadowMatrixOuter1"></feMergeNode>
                <feMergeNode in="shadowMatrixOuter2"></feMergeNode>
            </feMerge>
        </filter>
    </defs>
    <g id="Symbols" stroke="none" stroke-width="1" fill="none" fill-rule="evenodd">
        <g id="Button---Teal">
            <g id="Button-teal" transform="translate(4.000000, 4.000000)">
                <g id="button-bg-copy">
                    <use fill="black" fill-opacity="1" filter="url(#filter-2)" xlink:href="#path-1"></use>
                    <use fill="#2DCCD3" fill-rule="evenodd" xlink:href="#path-1"></use>
                </g>
                <text id="Join-the-wish-list" font-family="Roboto-Medium, Roboto" font-size="14" font-weight="400" letter-spacing="0.21875" fill="#FFFFFF">
                    <tspan x="52" y="24">Join the wish list</tspan>
                </text>
                <g id="Logo---S-white---Seaters" transform="translate(9.000000, 6.000000)" fill="#FFFFFF">
                    <g id="Page-1" transform="translate(2.000000, 0.000000)">
                        <g id="Group-5">
                            <path d="M15.619938,19.0135775 C15.4188113,18.6901972 15.1309239,18.3821972 14.7629803,18.0970704 C14.3145859,17.7496338 13.7959944,17.4167887 13.2214028,17.1072113 C13.083769,17.0338592 12.9425859,16.9601127 12.8006141,16.8879437 L12.6483887,16.8086761 C12.1325577,16.5409014 11.6762761,16.3129577 11.2543042,16.1122254 C10.4706986,15.719831 9.69064225,15.308507 8.92833239,14.8853521 C8.70669859,14.7619155 8.49098028,14.6333521 8.28038873,14.5000563 C7.67779718,14.1210704 7.11582535,13.7010704 6.60985352,13.2518873 C6.38033239,13.0476056 6.14765634,12.8157183 5.89802254,12.5416338 C5.73475493,12.3621972 5.57424789,12.1705352 5.42083944,11.972169 C5.17830423,11.6578592 4.97993803,11.3691831 4.81469859,11.0887887 C4.28506479,10.1884507 4.01689577,9.14890141 4.01689577,7.99774648 C4.01689577,7.80766197 4.02517746,7.6136338 4.04095211,7.40935211 L1.52844507,8.35070423 C1.16089577,8.48873239 0.86275493,8.89808451 0.86275493,9.26523944 L0.86275493,15.8890141 L3.17847324,17.3371268 L0.86275493,20.5204507 L0.86275493,27.1442254 C0.86275493,27.5113803 1.16089577,27.6979155 1.52844507,27.5602817 L6.44816338,25.7170141 C6.44579718,25.7142535 6.44343099,25.7122817 6.44106479,25.7103099 C6.36889577,25.6377465 6.30145915,25.5620282 6.2344169,25.4855211 L6.16619155,25.407831 C5.69019155,24.8829296 5.27965634,24.2901972 4.94838873,23.6505352 C4.8624169,23.4829296 4.76224789,23.2873239 4.67272676,23.0787042 L4.1647831,21.8936338 L8.68776901,20.2061408 L9.10698028,21.1735211 C9.20636056,21.4022535 9.32348732,21.6144225 9.45599437,21.8092394 C10.0357127,22.8231549 11.1269239,23.5077746 12.3786423,23.5077746 C13.9482197,23.5077746 15.2661915,22.4331268 15.6384732,20.9798873 C15.7686141,20.6162817 15.8344732,20.2254648 15.8344732,19.8157183 C15.8344732,19.5132394 15.7623042,19.243493 15.619938,19.0135775" id="Fill-1"></path>
                            <path d="M23.8072169,0.668608451 C23.8072169,0.301059155 23.5094704,0.11491831 23.1423155,0.252157746 L18.2210197,2.09621408 C18.2233859,2.09897465 18.2265408,2.10094648 18.2293014,2.10370704 C18.304231,2.17863662 18.3744282,2.25790423 18.4446254,2.33717183 L18.5132451,2.41525634 C18.9770197,2.92911549 19.3773014,3.50291831 19.6991042,4.11655211 C19.8221465,4.3523831 19.9171887,4.54877746 19.9972451,4.73452394 L20.5051887,5.91959437 L15.9790479,7.60511549 L15.5618085,6.63655211 C15.5109352,6.51863662 15.4478366,6.39559437 15.3673859,6.2575662 C14.8338085,5.10562254 13.6672732,4.30624225 12.3142028,4.30624225 C10.8294141,4.30624225 9.57059718,5.26810141 9.12417465,6.60263662 C9.11865352,6.61446761 9.11234366,6.62590423 9.1072169,6.63812958 C9.01848451,6.84477746 8.94986479,7.06325634 8.90451268,7.28804507 C8.8587662,7.5140169 8.83589296,7.75300282 8.83589296,7.99711549 C8.83589296,8.07598873 8.83983662,8.15367887 8.85009014,8.22821408 C8.86980845,8.38241127 8.91673803,8.53069296 8.99166761,8.68252394 L9.01217465,8.72472113 C9.02992113,8.76100282 9.03859718,8.78032676 9.0500338,8.79846761 C9.14901972,8.95858028 9.27048451,9.11829859 9.41048451,9.27289014 C9.43769577,9.30246761 9.46766761,9.33125634 9.49763944,9.3608338 L9.65262535,9.51700282 C9.72952676,9.5872 9.81273803,9.65976338 9.90147042,9.73035493 C10.2465408,10.0068056 10.6539211,10.2804958 11.1113859,10.5431437 L11.1583155,10.5695662 C11.2399493,10.6168901 11.3180338,10.6618479 11.3992732,10.7060169 L11.8894704,10.9674817 C12.3875549,11.2340732 12.8947099,11.5026366 13.4207944,11.7790873 C14.1732451,12.1367775 14.9600056,12.5437634 15.7432169,12.9791437 C16.5891324,13.4484394 17.3624845,13.9839887 18.0427662,14.5712 C18.7739211,15.2002141 19.3844,15.9250592 19.8556676,16.7248338 C19.904569,16.8084394 19.9451887,16.8916507 19.9846254,16.9756507 L20.0201183,17.0509746 C20.324569,17.6519887 20.5229352,18.307031 20.6049634,18.9873127 C20.636907,19.2570592 20.6534704,19.5358761 20.6534704,19.8154817 C20.6534704,20.0087211 20.6436113,20.2043268 20.6302028,20.4034817 L23.1423155,19.4621296 C23.5094704,19.3241014 23.8072169,18.9147493 23.8072169,18.5472 L23.8072169,11.9238197 L21.4914986,10.475707 L23.8072169,7.2923831 L23.8072169,0.668608451 Z" id="Fill-3"></path>
                        </g>
                    </g>
                </g>
            </g>
        </g>
    </g>
</svg>